                                                                        S      1
,,20HPully Assembly Gauge,20HPully Assembly Gauge,7Hunknown,7Hunknown,  G      1
32,38,7,99,15,,1.,2,2HMM,1,0.08,15H20240410.224228,0.01,10000.,7HunknownG      2
,7Hunknown,11,0,;                                                       G      3
     186       1                                                00000000D      1
     186            -263       1       0                               0D      2
     514       2                                                00010000D      3
     514                       2       1                               0D      4
     510       4                                                00010000D      5
     510            -263       1       1                               0D      6
     510       5                                                00010000D      7
     510            -263       1       1                               0D      8
     510       6                                                00010000D      9
     510            -263       1       1                               0D     10
     510       7                                                00010000D     11
     510            -263       1       1                               0D     12
     510       8                                                00010000D     13
     510            -263       1       1                               0D     14
     510       9                                                00010000D     15
     510            -263       1       1                               0D     16
     510      10                                                00010000D     17
     510            -263       1       1                               0D     18
     510      11                                                00010000D     19
     510            -263       1       1                               0D     20
     510      12                                                00010000D     21
     510            -263       1       1                               0D     22
     510      13                                                00010000D     23
     510            -263       1       1                               0D     24
     510      14                                                00010000D     25
     510            -263       1       1                               0D     26
     510      15                                                00010000D     27
     510            -263       1       1                               0D     28
     510      16                                                00010000D     29
     510            -263       1       1                               0D     30
     510      17                                                00010000D     31
     510            -263       1       1                               0D     32
     510      18                                                00010000D     33
     510            -263       1       1                               0D     34
     510      19                                                00010000D     35
     510            -263       1       1                               0D     36
     510      20                                                00010000D     37
     510            -263       1       1                               0D     38
     510      21                                                00010000D     39
     510            -263       1       1                               0D     40
     510      22                                                00010000D     41
     510            -263       1       1                               0D     42
     510      23                                                00010000D     43
     510            -263       1       1                               0D     44
     510      24                                                00010000D     45
     510            -263       1       1                               0D     46
     510      25                                                00010000D     47
     510            -263       1       1                               0D     48
     508      26                                                00010000D     49
     508                       1       1                               0D     50
     508      27                                                00010000D     51
     508                       1       1                               0D     52
     508      28                                                00010000D     53
     508                       1       1                               0D     54
     508      29                                                00010000D     55
     508                       1       1                               0D     56
     508      30                                                00010000D     57
     508                       1       1                               0D     58
     508      31                                                00010000D     59
     508                       2       1                               0D     60
     508      33                                                00010000D     61
     508                       1       1                               0D     62
     508      34                                                00010000D     63
     508                       1       1                               0D     64
     508      35                                                00010000D     65
     508                       2       1                               0D     66
     508      37                                                00010000D     67
     508                       2       1                               0D     68
     508      39                                                00010000D     69
     508                       2       1                               0D     70
     508      41                                                00010000D     71
     508                       1       1                               0D     72
     508      42                                                00010000D     73
     508                       1       1                               0D     74
     508      43                                                00010000D     75
     508                       1       1                               0D     76
     508      44                                                00010000D     77
     508                       1       1                               0D     78
     508      45                                                00010000D     79
     508                       1       1                               0D     80
     508      46                                                00010000D     81
     508                       2       1                               0D     82
     508      48                                                00010000D     83
     508                       2       1                               0D     84
     508      50                                                00010000D     85
     508                       2       1                               0D     86
     508      52                                                00010000D     87
     508                       2       1                               0D     88
     508      54                                                00010000D     89
     508                       1       1                               0D     90
     508      55                                                00010000D     91
     508                       2       1                               0D     92
     126      57                                                00010000D     93
     126       0               7       0                               0D     94
     126      64                                                00010000D     95
     126       0               4       0                               0D     96
     126      68                                                00010000D     97
     126       0               7       0                               0D     98
     126      75                                                00010000D     99
     126       0               4       0                               0D    100
     126      79                                                00010000D    101
     126       0               5       0                               0D    102
     126      84                                                00010000D    103
     126       0               4       0                               0D    104
     126      88                                                00010000D    105
     126       0               5       0                               0D    106
     126      93                                                00010000D    107
     126       0               4       0                               0D    108
     126      97                                                00010000D    109
     126       0               4       0                               0D    110
     126     101                                                00010000D    111
     126       0               4       0                               0D    112
     126     105                                                00010000D    113
     126       0               4       0                               0D    114
     126     109                                                00010000D    115
     126       0               3       0                               0D    116
     126     112                                                00010000D    117
     126       0               3       0                               0D    118
     126     115                                                00010000D    119
     126       0               2       0                               0D    120
     126     117                                                00010000D    121
     126       0               4       0                               0D    122
     126     121                                                00010000D    123
     126       0               3       0                               0D    124
     126     124                                                00010000D    125
     126       0               4       0                               0D    126
     126     128                                                00010000D    127
     126       0               3       0                               0D    128
     126     131                                                00010000D    129
     126       0               3       0                               0D    130
     126     134                                                00010000D    131
     126       0               4       0                               0D    132
     126     138                                                00010000D    133
     126       0               4       0                               0D    134
     126     142                                                00010000D    135
     126       0               3       0                               0D    136
     126     145                                                00010000D    137
     126       0               3       0                               0D    138
     126     148                                                00010000D    139
     126       0               4       0                               0D    140
     126     152                                                00010000D    141
     126       0               4       0                               0D    142
     126     156                                                00010000D    143
     126       0               3       0                               0D    144
     126     159                                                00010000D    145
     126       0               4       0                               0D    146
     126     163                                                00010000D    147
     126       0               3       0                               0D    148
     126     166                                                00010000D    149
     126       0               4       0                               0D    150
     126     170                                                00010000D    151
     126       0               4       0                               0D    152
     126     174                                                00010000D    153
     126       0               3       0                               0D    154
     126     177                                                00010000D    155
     126       0               3       0                               0D    156
     126     180                                                00010000D    157
     126       0               2       0                               0D    158
     126     182                                                00010000D    159
     126       0               4       0                               0D    160
     126     186                                                00010000D    161
     126       0               3       0                               0D    162
     126     189                                                00010000D    163
     126       0               4       0                               0D    164
     126     193                                                00010000D    165
     126       0               5       0                               0D    166
     126     198                                                00010000D    167
     126       0               4       0                               0D    168
     126     202                                                00010000D    169
     126       0               2       0                               0D    170
     126     204                                                00010000D    171
     126       0               3       0                               0D    172
     126     207                                                00010000D    173
     126       0               3       0                               0D    174
     126     210                                                00010000D    175
     126       0               3       0                               0D    176
     126     213                                                00010000D    177
     126       0               3       0                               0D    178
     126     216                                                00010000D    179
     126       0               3       0                               0D    180
     126     219                                                00010000D    181
     126       0               2       0                               0D    182
     126     221                                                00010000D    183
     126       0               2       0                               0D    184
     126     223                                                00010000D    185
     126       0               2       0                               0D    186
     126     225                                                00010000D    187
     126       0               3       0                               0D    188
     126     228                                                00010000D    189
     126       0               3       0                               0D    190
     126     231                                                00010000D    191
     126       0               2       0                               0D    192
     126     233                                                00010000D    193
     126       0               3       0                               0D    194
     126     236                                                00010000D    195
     126       0               2       0                               0D    196
     126     238                                                00010000D    197
     126       0               3       0                               0D    198
     126     241                                                00010000D    199
     126       0               2       0                               0D    200
     126     243                                                00010000D    201
     126       0               4       0                               0D    202
     126     247                                                00010000D    203
     126       0               3       0                               0D    204
     126     250                                                00010000D    205
     126       0               3       0                               0D    206
     126     253                                                00010000D    207
     126       0               4       0                               0D    208
     126     257                                                00010000D    209
     126       0               4       0                               0D    210
     126     261                                                00010000D    211
     126       0               5       0                               0D    212
     128     266                                                00010000D    213
     128       0    -263      10       0                               0D    214
     128     276                                                00010000D    215
     128       0    -263       8       0                               0D    216
     128     284                                                00010000D    217
     128       0    -263       8       0                               0D    218
     128     292                                                00010000D    219
     128       0    -263       5       0                               0D    220
     128     297                                                00010000D    221
     128       0    -263       7       0                               0D    222
     128     304                                                00010000D    223
     128       0    -263       7       0                               0D    224
     128     311                                                00010000D    225
     128       0    -263       6       0                               0D    226
     128     317                                                00010000D    227
     128       0    -263       6       0                               0D    228
     128     323                                                00010000D    229
     128       0    -263       5       0                               0D    230
     128     328                                                00010000D    231
     128       0    -263       6       0                               0D    232
     128     334                                                00010000D    233
     128       0    -263       5       0                               0D    234
     128     339                                                00010000D    235
     128       0    -263       7       0                               0D    236
     128     346                                                00010000D    237
     128       0    -263       5       0                               0D    238
     128     351                                                00010000D    239
     128       0    -263       7       0                               0D    240
     128     358                                                00010000D    241
     128       0    -263       5       0                               0D    242
     128     363                                                00010000D    243
     128       0    -263       5       0                               0D    244
     128     368                                                00010000D    245
     128       0    -263       5       0                               0D    246
     128     373                                                00010000D    247
     128       0    -263       6       0                               0D    248
     128     379                                                00010000D    249
     128       0    -263       5       0                               0D    250
     128     384                                                00010000D    251
     128       0    -263       7       0                               0D    252
     128     391                                                00010000D    253
     128       0    -263       7       0                               0D    254
     128     398                                                00010000D    255
     128       0    -263       5       0                               0D    256
     502     403                                                00010000D    257
     502                      27       1                               0D    258
     504     430                                                00010001D    259
     504                      17       1                               0D    260
     406     447                                                00000000D    261
     406                       1      15                               0D    262
     314     448                                                00000200D    263
     314                       2       0                               0D    264
     314     450                                                00000200D    265
     314                       2       0                               0D    266
186,3,1,0,0,1,261;                                                     1P      1
514,22,5,1,7,1,9,1,11,1,13,1,15,1,17,1,19,1,21,1,23,1,25,1,27,1,       3P      2
29,1,31,1,33,1,35,1,37,1,39,1,41,1,43,1,45,1,47,1;                     3P      3
510,213,1,1,49;                                                        5P      4
510,215,1,1,51;                                                        7P      5
510,217,1,1,53;                                                        9P      6
510,219,1,1,55;                                                       11P      7
510,221,1,1,57;                                                       13P      8
510,223,1,1,59;                                                       15P      9
510,225,1,1,61;                                                       17P     10
510,227,1,1,63;                                                       19P     11
510,229,1,1,65;                                                       21P     12
510,231,1,1,67;                                                       23P     13
510,233,1,1,69;                                                       25P     14
510,235,1,1,71;                                                       27P     15
510,237,1,1,73;                                                       29P     16
510,239,1,1,75;                                                       31P     17
510,241,1,1,77;                                                       33P     18
510,243,1,1,79;                                                       35P     19
510,245,1,1,81;                                                       37P     20
510,247,1,1,83;                                                       39P     21
510,249,1,1,85;                                                       41P     22
510,251,1,1,87;                                                       43P     23
510,253,1,1,89;                                                       45P     24
510,255,1,1,91;                                                       47P     25
508,4,0,259,1,1,0,0,259,2,1,0,0,259,3,1,0,0,259,4,1,0;                49P     26
508,4,0,259,2,0,0,0,259,5,0,0,0,259,6,0,0,0,259,7,0,0;                51P     27
508,4,0,259,8,1,0,0,259,9,1,0,0,259,10,1,0,0,259,11,1,0;              53P     28
508,4,0,259,9,0,0,0,259,12,1,0,0,259,13,1,0,0,259,14,1,0;             55P     29
508,4,0,259,15,0,0,0,259,16,1,0,0,259,17,1,0,0,259,18,1,0;            57P     30
508,6,0,259,16,0,0,0,259,19,1,0,0,259,20,0,0,0,259,6,1,0,0,259,       59P     31
21,0,0,0,259,22,0,0;                                                  59P     32
508,4,0,259,23,0,0,0,259,24,0,0,0,259,25,0,0,0,259,26,0,0;            61P     33
508,4,0,259,25,1,0,0,259,27,0,0,0,259,28,1,0,0,259,29,0,0;            63P     34
508,9,0,259,27,1,0,0,259,24,1,0,0,259,30,0,0,0,259,19,0,0,0,259,      65P     35
15,1,0,0,259,31,0,0,0,259,32,1,0,0,259,33,0,0,0,259,34,0,0;           65P     36
508,8,0,259,23,1,0,0,259,35,1,0,0,259,36,1,0,0,259,37,1,0,0,259,      67P     37
3,0,0,0,259,7,1,0,0,259,20,1,0,0,259,30,1,0;                          67P     38
508,9,0,259,29,1,0,0,259,38,1,0,0,259,39,0,0,0,259,40,0,0,0,259,      69P     39
12,0,0,0,259,8,0,0,0,259,41,0,0,0,259,35,0,0,0,259,26,1,0;            69P     40
508,4,0,259,42,0,0,0,259,43,0,0,0,259,13,0,0,0,259,40,1,0;            71P     41
508,4,0,259,42,1,0,0,259,39,1,0,0,259,44,1,0,0,259,45,1,0;            73P     42
508,4,0,259,46,0,0,0,259,32,0,0,0,259,47,0,0,0,259,48,1,0;            75P     43
508,4,0,259,18,0,0,0,259,49,1,0,0,259,47,1,0,0,259,31,1,0;            77P     44
508,4,0,259,46,1,0,0,259,50,1,0,0,259,51,1,0,0,259,33,1,0;            79P     45
508,7,0,259,22,1,0,0,259,52,0,0,0,259,53,0,0,0,259,50,0,0,0,259,      81P     46
48,0,0,0,259,49,0,0,0,259,17,0,0;                                     81P     47
508,8,0,259,34,1,0,0,259,51,0,0,0,259,53,1,0,0,259,54,0,0,0,259,      83P     48
55,0,0,0,259,44,0,0,0,259,38,0,0,0,259,28,0,0;                        83P     49
508,7,0,259,55,1,0,0,259,56,0,0,0,259,57,0,0,0,259,10,0,0,0,259,      85P     50
14,0,0,0,259,43,1,0,0,259,45,0,0;                                     85P     51
508,6,0,259,11,0,0,0,259,57,1,0,0,259,58,0,0,0,259,59,0,0,0,259,      87P     52
36,0,0,0,259,41,1,0;                                                  87P     53
508,4,0,259,4,0,0,0,259,37,0,0,0,259,59,1,0,0,259,60,0,0;             89P     54
508,8,0,259,60,1,0,0,259,58,1,0,0,259,56,1,0,0,259,54,1,0,0,259,      91P     55
52,1,0,0,259,21,1,0,0,259,5,1,0,0,259,1,0,0;                          91P     56
126,2,2,0,0,0,0,-0.785398163397498,-0.785398163397498,                93P     57
-0.785398163397498,0.785398163397498,0.785398163397498,               93P     58
0.785398163397498,1.,0.707106781186512,1.,-20.4499999999998,          93P     59
3.8183766184072,2.1213203435598,-20.4499999999998,                    93P     60
5.93969696196711,2.91433543964104D-15,-20.4499999999998,              93P     61
3.8183766184071,-2.1213203435597,-0.785398163397498,                  93P     62
0.785398163397498,0.,0.,0.;                                           93P     63
126,1,1,0,0,1,0,-0.525,-0.525,0.525,0.525,1.,1.,                      95P     64
-20.4499999999998,3.8183766184071,-2.1213203435597,                   95P     65
-9.94999999999984,3.8183766184071,-2.1213203435597,-0.525,0.525,      95P     66
0.,0.,0.;                                                             95P     67
126,2,2,0,0,0,0,-0.785398163397498,-0.785398163397498,                97P     68
-0.785398163397498,0.785398163397498,0.785398163397498,               97P     69
0.785398163397498,1.,0.707106781186512,1.,-9.94999999999984,          97P     70
3.8183766184071,-2.1213203435597,-9.94999999999984,                   97P     71
5.93969696196711,2.08166817117217D-15,-9.94999999999984,              97P     72
3.8183766184072,2.1213203435598,-0.785398163397498,                   97P     73
0.785398163397498,0.,0.,0.;                                           97P     74
126,1,1,0,0,1,0,-0.525,-0.525,0.525,0.525,1.,1.,                      99P     75
-9.94999999999984,3.8183766184072,2.1213203435598,                    99P     76
-20.4499999999998,3.8183766184072,2.1213203435598,-0.525,0.525,       99P     77
0.,0.,0.;                                                             99P     78
126,1,1,0,0,1,0,-1.12284271247455,-1.12284271247455,                 101P     79
-0.30000000000003,-0.30000000000003,1.,1.,-20.4499999999998,         101P     80
-1.99999999999999,-7.93969696196595,-20.4499999999998,               101P     81
3.8183766184071,-2.1213203435597,-1.12284271247455,                  101P     82
-0.30000000000003,0.,0.,0.;                                          101P     83
126,1,1,0,0,1,0,-0.525,-0.525,0.525,0.525,1.,1.,                     103P     84
-9.94999999999984,-1.99999999999999,-7.93969696196596,               103P     85
-20.4499999999998,-1.99999999999999,-7.93969696196595,-0.525,        103P     86
0.525,0.,0.,0.;                                                      103P     87
126,1,1,0,0,1,0,0.30000000000003,0.30000000000003,                   105P     88
1.12284271247455,1.12284271247455,1.,1.,-9.94999999999984,           105P     89
3.8183766184071,-2.1213203435597,-9.94999999999984,                  105P     90
-1.99999999999999,-7.93969696196596,0.30000000000003,                105P     91
1.12284271247455,0.,0.,0.;                                           105P     92
126,1,1,0,0,1,0,-0.919238815542512,-0.919238815542512,               107P     93
-0.353553390593274,-0.353553390593274,1.,1.,-13.9499999999998,       107P     94
-1.99999999999999,11.2,-9.94999999999983,-5.99999999999999,11.2,     107P     95
-0.919238815542512,-0.353553390593274,0.,0.,0.;                      107P     96
126,1,1,0,0,1,0,0.723015151901668,0.723015151901668,                 109P     97
1.60301515190167,1.60301515190167,1.,1.,-9.94999999999983,           109P     98
-5.99999999999999,11.2,-9.94999999999983,-5.99999999999999,20.,      109P     99
0.723015151901668,1.60301515190167,0.,0.,0.;                         109P    100
126,1,1,0,0,1,0,-0.468458242536088,-0.468458242536088,               111P    101
0.0972271824131502,0.0972271824131502,1.,1.,-9.94999999999983,       111P    102
-5.99999999999999,20.,-13.9499999999998,-1.99999999999999,20.,       111P    103
-0.468458242536088,0.0972271824131502,0.,0.,0.;                      111P    104
126,1,1,0,0,1,0,-1.60301515190167,-1.60301515190167,                 113P    105
-0.723015151901669,-0.723015151901669,1.,1.,-13.9499999999998,       113P    106
-1.99999999999999,20.,-13.9499999999998,-1.99999999999999,11.2,      113P    107
-1.60301515190167,-0.723015151901669,0.,0.,0.;                       113P    108
126,1,1,0,0,1,0,-0.399999999999999,-0.399999999999999,1.,1.,1.,      115P    109
1.,-9.94999999999983,-5.99999999999999,11.2,-9.94999999999983,       115P    110
-20.,11.2,-0.399999999999999,1.,0.,0.,0.;                            115P    111
126,1,1,0,0,1,0,0.120000000000001,0.120000000000001,1.,1.,1.,1.,     117P    112
-9.94999999999983,-20.,11.2,-9.94999999999983,-20.,20.,              117P    113
0.120000000000001,1.,0.,0.,0.;                                       117P    114
126,1,1,0,0,1,0,-3.,-3.,-1.6,-1.6,1.,1.,-9.94999999999983,-20.,      119P    115
20.,-9.94999999999983,-5.99999999999999,20.,-3.,-1.6,0.,0.,0.;       119P    116
126,1,1,0,0,1,0,0.494974746830583,0.494974746830583,                 121P    117
1.06066017177982,1.06066017177982,1.,1.,-13.9499999999998,           121P    118
-1.99999999999999,-11.2,-9.94999999999984,-5.99999999999999,         121P    119
-11.2,0.494974746830583,1.06066017177982,0.,0.,0.;                   121P    120
126,1,1,0,0,1,0,0.12,0.12,1.,1.,1.,1.,-13.9499999999998,             123P    121
-1.99999999999999,-11.2,-13.9499999999998,-1.99999999999999,         123P    122
-20.,0.12,1.,0.,0.,0.;                                               123P    123
126,1,1,0,0,1,0,0.680590276892052,0.680590276892052,                 125P    124
1.24627570184129,1.24627570184129,1.,1.,-13.9499999999998,           125P    125
-1.99999999999999,-20.,-9.94999999999984,-5.99999999999999,-20.,     125P    126
0.680590276892052,1.24627570184129,0.,0.,0.;                         125P    127
126,1,1,0,0,1,0,-1.,-1.,-0.12,-0.12,1.,1.,-9.94999999999984,         127P    128
-5.99999999999999,-20.,-9.94999999999984,-5.99999999999999,          127P    129
-11.2,-1.,-0.12,0.,0.,0.;                                            127P    130
126,1,1,0,0,1,0,-0.1375,-0.1375,0.2625,0.2625,1.,1.,                 129P    131
-13.9499999999998,-1.99999999999999,-11.2,-9.94999999999984,         129P    132
-1.99999999999999,-11.2,-0.1375,0.2625,0.,0.,0.;                     129P    133
126,1,1,0,0,1,0,2.7939696961966,2.7939696961966,3.12,3.12,1.,1.,     131P    134
-9.94999999999984,-1.99999999999999,-7.93969696196596,               131P    135
-9.94999999999984,-1.99999999999999,-11.2,2.7939696961966,3.12,      131P    136
0.,0.,0.;                                                            131P    137
126,1,1,0,0,1,0,-4.,-4.,-2.7939696961966,-2.7939696961966,1.,1.,     133P    138
-20.4499999999998,-1.99999999999999,-20.,-20.4499999999998,          133P    139
-1.99999999999999,-7.93969696196596,-4.,-2.7939696961966,0.,0.,      133P    140
0.;                                                                  133P    141
126,1,1,0,0,1,0,-0.125,-0.125,0.525,0.525,1.,1.,                     135P    142
-13.9499999999998,-1.99999999999999,-20.,-20.4499999999998,          135P    143
-1.99999999999999,-20.,-0.125,0.525,0.,0.,0.;                        135P    144
126,1,1,0,0,1,0,-1.68,-1.68,0.56,0.56,1.,1.,-9.94999999999984,       137P    145
8.93969696196032,-11.2,-9.94999999999983,8.93969696196711,11.2,      137P    146
-1.68,0.56,0.,0.,0.;                                                 137P    147
126,1,1,0,0,1,0,-1.02749999999995,-1.02749999999995,-0.2625,         139P    148
-0.2625,1.,1.,-2.30000000000037,8.93969696196032,-11.2,              139P    149
-9.94999999999984,8.93969696196032,-11.2,-1.02749999999995,          139P    150
-0.2625,0.,0.,0.;                                                    139P    151
126,1,1,0,0,1,0,-0.559999999999917,-0.559999999999917,               141P    152
1.68000000000009,1.68000000000009,1.,1.,-2.30000000000037,           141P    153
8.93969696196712,11.2,-2.30000000000037,8.93969696196032,-11.2,      141P    154
-0.559999999999917,1.68000000000009,0.,0.,0.;                        141P    155
126,1,1,0,0,1,0,0.2625,0.2625,1.02749999999995,1.02749999999995,     143P    156
1.,1.,-9.94999999999983,8.93969696196712,11.2,-2.30000000000037,     143P    157
8.93969696196712,11.2,0.2625,1.02749999999995,0.,0.,0.;              143P    158
126,1,1,0,0,1,0,-0.276507575950993,-0.276507575950993,               145P    159
0.829522727852977,0.829522727852977,1.,1.,-2.30000000000036,20.,     145P    160
-11.2,-2.30000000000037,8.93969696196032,-11.2,                      145P    161
-0.276507575950993,0.829522727852977,0.,0.,0.;                       145P    162
126,1,1,0,0,1,0,-0.560000000000001,-0.560000000000001,1.68,1.68,     147P    163
1.,1.,-2.30000000000036,20.,-11.2,-2.30000000000036,20.,11.2,        147P    164
-0.560000000000001,1.68,0.,0.,0.;                                    147P    165
126,1,1,0,0,1,0,1.1704772721477,1.1704772721477,                     149P    166
2.27650757595099,2.27650757595099,1.,1.,-2.30000000000037,           149P    167
8.93969696196712,11.2,-2.30000000000036,20.,11.2,                    149P    168
1.1704772721477,2.27650757595099,0.,0.,0.;                           149P    169
126,1,1,0,0,1,0,-1.65,-1.65,-0.556030303803969,                      151P    170
-0.556030303803969,1.,1.,-9.94999999999984,-1.99999999999999,        151P    171
-11.2,-9.94999999999984,8.93969696196032,-11.2,-1.65,                151P    172
-0.556030303803969,0.,0.,0.;                                         151P    173
126,1,1,0,0,1,0,-3.,-3.,-1.6,-1.6,1.,1.,-9.94999999999984,-20.,      153P    174
-11.2,-9.94999999999984,-5.99999999999999,-11.2,-3.,-1.6,0.,0.,      153P    175
0.;                                                                  153P    176
126,1,1,0,0,1,0,0.,0.,0.994999999999946,0.994999999999946,1.,1.,     155P    177
-9.94999999999984,-20.,-11.2,-3.77475828372553D-13,-20.,-11.2,       155P    178
0.,0.994999999999946,0.,0.,0.;                                       155P    179
126,1,1,0,0,1,0,-1.,-1.,3.,3.,1.,1.,-3.68316488419396D-13,20.,       157P    180
-11.2,-3.78308495641022D-13,-20.,-11.2,-1.,3.,0.,0.,0.;              157P    181
126,1,1,0,0,1,0,0.764999999999947,0.764999999999947,                 159P    182
0.994999999999947,0.994999999999947,1.,1.,-2.30000000000036,20.,     159P    183
-11.2,-3.68594044175552D-13,20.,-11.2,0.764999999999947,             159P    184
0.994999999999947,0.,0.,0.;                                          159P    185
126,1,1,0,0,1,0,-1.44396969619671,-1.44396969619671,-0.35,-0.35,     161P    186
1.,1.,-9.94999999999983,8.93969696196712,11.2,-9.94999999999983,     161P    187
-1.99999999999999,11.2,-1.44396969619671,-0.35,0.,0.,0.;             161P    188
126,1,1,0,0,1,0,0.879999999999999,0.879999999999999,                 163P    189
1.20603030380333,1.20603030380333,1.,1.,-9.94999999999983,           163P    190
-1.99999999999999,11.2,-9.94999999999984,-1.99999999999999,          163P    191
7.93969696196665,0.879999999999999,1.20603030380333,0.,0.,0.;        163P    192
126,1,1,0,0,1,0,-1.1228427124746,-1.1228427124746,                   165P    193
-0.30000000000003,-0.30000000000003,1.,1.,-9.94999999999983,         165P    194
-1.99999999999999,7.93969696196665,-9.94999999999984,                165P    195
3.8183766184072,2.1213203435598,-1.1228427124746,                    165P    196
-0.30000000000003,0.,0.,0.;                                          165P    197
126,1,1,0,0,1,0,0.764999999999947,0.764999999999947,                 167P    198
0.994999999999947,0.994999999999947,1.,1.,-2.30000000000036,20.,     167P    199
11.2,-3.68594044175552D-13,20.,11.2,0.764999999999947,               167P    200
0.994999999999947,0.,0.,0.;                                          167P    201
126,1,1,0,0,1,0,-1.,-1.,3.,3.,1.,1.,-3.7775338412871D-13,-20.,       169P    202
11.2,-3.67761376907083D-13,20.,11.2,-1.,3.,0.,0.,0.;                 169P    203
126,1,1,0,0,1,0,0.,0.,0.994999999999946,0.994999999999946,1.,1.,     171P    204
-9.94999999999983,-20.,11.2,-3.77475828372553D-13,-20.,11.2,0.,      171P    205
0.994999999999946,0.,0.,0.;                                          171P    206
126,1,1,0,0,1,0,-0.2625,-0.2625,0.1375,0.1375,1.,1.,                 173P    207
-9.94999999999983,-1.99999999999999,11.2,-13.9499999999998,          173P    208
-1.99999999999999,11.2,-0.2625,0.1375,0.,0.,0.;                      173P    209
126,1,1,0,0,1,0,-1.,-1.,-0.120000000000001,-0.120000000000001,       175P    210
1.,1.,-3.78030939884866D-13,-20.,20.,-3.78030939884866D-13,-20.,     175P    211
11.2,-1.,-0.120000000000001,0.,0.,0.;                                175P    212
126,1,1,0,0,1,0,0.,0.,0.994999999999945,0.994999999999945,1.,1.,     177P    213
-9.94999999999983,-20.,20.,-3.77475828372553D-13,-20.,20.,0.,        177P    214
0.994999999999945,0.,0.,0.;                                          177P    215
126,1,1,0,0,1,0,0.560000000000001,0.560000000000001,1.44,1.44,       179P    216
1.,1.,-3.68038932663239D-13,20.,11.2,-3.68038932663239D-13,20.,      179P    217
20.,0.560000000000001,1.44,0.,0.,0.;                                 179P    218
126,1,1,0,0,1,0,-1.,-1.,3.,3.,1.,1.,-3.68316488419396D-13,20.,       181P    219
20.,-3.78308495641022D-13,-20.,20.,-1.,3.,0.,0.,0.;                  181P    220
126,1,1,0,0,1,0,0.56,0.56,1.44,1.44,1.,1.,-3.78030939884866D-13,     183P    221
-20.,-11.2,-3.78030939884866D-13,-20.,-20.,0.56,1.44,0.,0.,0.;       183P    222
126,1,1,0,0,1,0,-1.44,-1.44,-0.56,-0.56,1.,1.,-9.94999999999984,     185P    223
-20.,-20.,-9.94999999999984,-20.,-11.2,-1.44,-0.56,0.,0.,0.;         185P    224
126,1,1,0,0,1,0,0.,0.,0.994999999999946,0.994999999999946,1.,1.,     187P    225
-9.94999999999984,-20.,-20.,-3.77475828372553D-13,-20.,-20.,0.,      187P    226
0.994999999999946,0.,0.,0.;                                          187P    227
126,1,1,0,0,1,0,-0.4,-0.4,1.,1.,1.,1.,-9.94999999999984,             189P    228
-5.99999999999999,-20.,-9.94999999999984,-20.,-20.,-0.4,1.,0.,       189P    229
0.,0.;                                                               189P    230
126,1,1,0,0,1,0,-1.,-1.,3.,3.,1.,1.,-3.7775338412871D-13,-20.,       191P    231
-20.,-3.67761376907083D-13,20.,-20.,-1.,3.,0.,0.,0.;                 191P    232
126,1,1,0,0,1,0,-1.,-1.,-0.120000000000002,-0.120000000000002,       193P    233
1.,1.,-3.68038932663239D-13,20.,-20.,-3.68038932663239D-13,20.,      193P    234
-11.2,-1.,-0.120000000000002,0.,0.,0.;                               193P    235
126,1,1,0,0,1,0,-4.,-4.,-1.8,-1.8,1.,1.,-20.4499999999998,20.,       195P    236
-20.,-20.4499999999998,-1.99999999999999,-20.,-4.,-1.8,0.,0.,0.;     195P    237
126,1,1,0,0,1,0,-1.51999999999995,-1.51999999999995,0.525,0.525,     197P    238
1.,1.,-3.66373598126302D-13,20.,-20.,-20.4499999999998,20.,-20.,     197P    239
-1.51999999999995,0.525,0.,0.,0.;                                    197P    240
126,1,1,0,0,1,0,-4.,-4.,0.,0.,1.,1.,-20.4499999999998,20.,20.,       199P    241
-20.4499999999998,20.,-20.,-4.,0.,0.,0.,0.;                          199P    242
126,1,1,0,0,1,0,-1.51999999999995,-1.51999999999995,                 201P    243
0.524999999999999,0.524999999999999,1.,1.,-3.70814490224802D-13,     201P    244
20.,20.,-20.4499999999998,20.,20.,-1.51999999999995,                 201P    245
0.524999999999999,0.,0.,0.;                                          201P    246
126,1,1,0,0,1,0,-2.2,-2.2,0.,0.,1.,1.,-20.4499999999998,             203P    247
-1.99999999999999,20.,-20.4499999999998,20.,20.,-2.2,0.,0.,0.,       203P    248
0.;                                                                  203P    249
126,1,1,0,0,1,0,-0.125,-0.125,0.525,0.525,1.,1.,                     205P    250
-13.9499999999998,-1.99999999999999,20.,-20.4499999999998,           205P    251
-1.99999999999999,20.,-0.125,0.525,0.,0.,0.;                         205P    252
126,1,1,0,0,1,0,-1.20603030380333,-1.20603030380333,0.,0.,1.,1.,     207P    253
-20.4499999999998,-1.99999999999999,7.93969696196665,                207P    254
-20.4499999999998,-1.99999999999999,20.,-1.20603030380333,0.,0.,     207P    255
0.,0.;                                                               207P    256
126,1,1,0,0,1,0,-0.525,-0.525,0.525,0.525,1.,1.,                     209P    257
-9.94999999999983,-1.99999999999999,7.93969696196665,                209P    258
-20.4499999999998,-1.99999999999999,7.93969696196666,-0.525,         209P    259
0.525,0.,0.,0.;                                                      209P    260
126,1,1,0,0,1,0,0.30000000000003,0.30000000000003,                   211P    261
1.1228427124746,1.1228427124746,1.,1.,-20.4499999999998,             211P    262
3.8183766184072,2.1213203435598,-20.4499999999998,                   211P    263
-1.99999999999999,7.93969696196666,0.30000000000003,                 211P    264
1.1228427124746,0.,0.,0.;                                            211P    265
128,1,2,1,2,0,0,0,0,0,-1.75,-1.75,1.75,1.75,-0.785398163397498,      213P    266
-0.785398163397498,-0.785398163397498,0.785398163397498,             213P    267
0.785398163397498,0.785398163397498,1.,1.,0.707106781186512,         213P    268
0.707106781186512,1.,1.,-20.4499999999998,3.8183766184071,           213P    269
-2.1213203435597,-9.94999999999984,3.8183766184071,                  213P    270
-2.1213203435597,-20.4499999999998,5.93969696196711,                 213P    271
2.68744646258154D-15,-9.94999999999984,5.93969696196711,             213P    272
1.1983341235878D-15,-20.4499999999998,3.8183766184072,               213P    273
2.1213203435598,-9.94999999999984,3.8183766184072,                   213P    274
2.1213203435598,-1.75,1.75,-0.785398163397498,0.785398163397498;     213P    275
128,1,1,1,1,0,0,1,0,0,-0.00100000000000011,-0.00100000000000011,     215P    276
0.823842712474522,0.823842712474522,-0.526,-0.526,0.526,0.526,       215P    277
1.,1.,1.,1.,-9.93999999999984,-2.00707106781185,                     215P    278
-7.94676802977782,-9.93999999999984,3.82544768621897,                215P    279
-2.11424927574783,-20.4599999999998,-2.00707106781185,               215P    280
-7.94676802977782,-20.4599999999998,3.82544768621897,                215P    281
-2.11424927574783,-0.00100000000000011,0.823842712474522,-0.526,     215P    282
0.526;                                                               215P    283
128,1,1,1,1,0,0,1,0,0,0.722015151901668,0.722015151901668,           217P    284
1.60401515190167,1.60401515190167,-0.283842712474619,                217P    285
-0.283842712474619,0.283842712474619,0.283842712474619,1.,1.,1.,     217P    286
1.,-9.94292893218797,-6.00707106781186,11.19,-9.94292893218796,      217P    287
-6.00707106781186,20.01,-13.9570710678117,-1.99292893218812,         217P    288
11.19,-13.9570710678117,-1.99292893218812,20.01,                     217P    289
0.722015151901668,1.60401515190167,-0.283842712474619,               217P    290
0.283842712474619;                                                   217P    291
128,1,1,1,1,0,0,1,0,0,-2.001,-2.001,-1.119,-1.119,-2.001,-2.001,     219P    292
-0.599,-0.599,1.,1.,1.,1.,-9.94999999999983,-20.01,11.19,            219P    293
-9.94999999999983,-20.01,20.01,-9.94999999999983,                    219P    294
-5.98999999999999,11.19,-9.94999999999983,-5.98999999999999,         219P    295
20.01,-2.001,-1.119,-2.001,-0.599;                                   219P    296
128,1,1,1,1,0,0,1,0,0,-1.001,-1.001,-0.119,-0.119,                   221P    297
-0.283842712474619,-0.283842712474619,0.283842712474619,             221P    298
0.283842712474619,1.,1.,1.,1.,-9.94292893218797,                     221P    299
-6.00707106781185,-20.01,-9.94292893218797,-6.00707106781185,        221P    300
-11.19,-13.9570710678117,-1.99292893218812,-20.01,                   221P    301
-13.9570710678117,-1.99292893218812,-11.19,-1.001,-0.119,            221P    302
-0.283842712474619,0.283842712474619;                                221P    303
128,1,1,1,1,0,0,1,0,0,-0.00100000000000044,-0.00100000000000044,     223P    304
1.2070303038034,1.2070303038034,-0.526,-0.526,0.526,0.526,1.,1.,     223P    305
1.,1.,-9.93999999999984,-1.99999999999999,-20.01,                    223P    306
-9.93999999999984,-1.99999999999999,-7.92969696196595,               223P    307
-20.4599999999998,-1.99999999999999,-20.01,-20.4599999999998,        223P    308
-1.99999999999999,-7.92969696196595,-0.00100000000000044,            223P    309
1.2070303038034,-0.526,0.526;                                        223P    310
128,1,1,1,1,0,0,1,0,0,-0.00100000000000022,-0.00100000000000022,     225P    311
2.241,2.241,0.524,0.524,1.29099999999995,1.29099999999995,1.,1.,     225P    312
1.,1.,-9.95999999999983,8.93969696196712,11.21,                      225P    313
-9.95999999999984,8.93969696196032,-11.21,-2.29000000000036,         225P    314
8.93969696196712,11.21,-2.29000000000037,8.93969696196032,           225P    315
-11.21,-0.00100000000000022,2.241,0.524,1.29099999999995;            225P    316
128,1,1,1,1,0,0,1,0,0,-1.121,-1.121,1.121,1.121,                     227P    317
-0.554015151901985,-0.554015151901985,0.554015151901985,             227P    318
0.554015151901985,1.,1.,1.,1.,-2.30000000000036,                     227P    319
8.92969696196032,11.21,-2.30000000000036,8.92969696196032,           227P    320
-11.21,-2.30000000000036,20.01,11.21,-2.30000000000036,20.01,        227P    321
-11.21,-1.121,1.121,-0.554015151901985,0.554015151901985;            227P    322
128,1,1,1,1,0,0,1,0,0,-0.001,-0.001,4.001,4.001,-0.401,-0.401,       229P    323
0.995999999999947,0.995999999999947,1.,1.,1.,1.,                     229P    324
-13.9599999999998,20.01,-11.2,-13.9599999999998,-20.01,-11.2,        229P    325
0.00999999999963253,20.01,-11.2,0.00999999999963253,-20.01,          229P    326
-11.2,-0.001,4.001,-0.401,0.995999999999947;                         229P    327
128,1,1,1,1,0,0,1,0,0,-1.121,-1.121,1.121,1.121,-1.101,-1.101,       231P    328
-0.00503030380328984,-0.00503030380328984,1.,1.,1.,1.,               231P    329
-9.94999999999983,-2.00999999999999,11.21,-9.94999999999984,         231P    330
-2.00999999999999,-11.21,-9.94999999999983,8.94969696196712,         231P    331
11.21,-9.94999999999984,8.94969696196712,-11.21,-1.121,1.121,        231P    332
-1.101,-0.00503030380328984;                                         231P    333
128,1,1,1,1,0,0,1,0,0,-0.001,-0.001,4.001,4.001,-0.401,-0.401,       233P    334
0.995999999999947,0.995999999999947,1.,1.,1.,1.,                     233P    335
-13.9599999999998,-20.01,11.2,-13.9599999999998,20.01,11.2,          233P    336
0.00999999999963253,-20.01,11.2,0.00999999999963253,20.01,11.2,      233P    337
-0.001,4.001,-0.401,0.995999999999947;                               233P    338
128,1,1,1,1,0,0,1,0,0,-0.00100000000000011,-0.00100000000000011,     235P    339
0.880999999999999,0.880999999999999,-0.00100000000000002,            235P    340
-0.00100000000000002,0.995999999999946,0.995999999999946,1.,1.,      235P    341
1.,1.,-9.95999999999983,-20.,20.01,-9.95999999999983,-20.,11.19,     235P    342
0.00999999999962475,-20.,20.01,0.00999999999962364,-20.,11.19,       235P    343
-0.00100000000000011,0.880999999999999,-0.00100000000000002,         235P    344
0.995999999999946;                                                   235P    345
128,1,1,1,1,0,0,1,0,0,1.119,1.119,2.001,2.001,-2.001,-2.001,         237P    346
2.001,2.001,1.,1.,1.,1.,-3.78033437886671D-13,-20.01,20.01,          237P    347
-3.78033437886671D-13,-20.01,11.19,-3.68036434661434D-13,20.01,      237P    348
20.01,-3.68036434661434D-13,20.01,11.19,1.119,2.001,-2.001,          237P    349
2.001;                                                               237P    350
128,1,1,1,1,0,0,1,0,0,-0.00100000000000011,-0.00100000000000011,     239P    351
0.881,0.881,-0.00100000000000002,-0.00100000000000002,               239P    352
0.995999999999946,0.995999999999946,1.,1.,1.,1.,                     239P    353
-9.95999999999984,-20.,-11.19,-9.95999999999984,-20.,-20.01,         239P    354
0.00999999999962475,-20.,-11.19,0.00999999999962364,-20.,-20.01,     239P    355
-0.00100000000000011,0.881,-0.00100000000000002,                     239P    356
0.995999999999946;                                                   239P    357
128,1,1,1,1,0,0,1,0,0,1.119,1.119,2.001,2.001,-2.001,-2.001,         241P    358
-0.599,-0.599,1.,1.,1.,1.,-9.94999999999984,-20.01,-20.01,           241P    359
-9.94999999999984,-20.01,-11.19,-9.94999999999984,                   241P    360
-5.98999999999998,-20.01,-9.94999999999984,-5.98999999999999,        241P    361
-11.19,1.119,2.001,-2.001,-0.599;                                    241P    362
128,1,1,1,1,0,0,1,0,0,-2.001,-2.001,-1.119,-1.119,-2.001,-2.001,     243P    363
2.001,2.001,1.,1.,1.,1.,-3.78033437886671D-13,-20.01,-11.19,         243P    364
-3.78033437886671D-13,-20.01,-20.01,-3.68036434661434D-13,20.01,     243P    365
-11.19,-3.68036434661434D-13,20.01,-20.01,-2.001,-1.119,-2.001,      243P    366
2.001;                                                               243P    367
128,1,1,1,1,0,0,1,0,0,-0.00100000000000045,-0.00100000000000045,     245P    368
4.001,4.001,-1.52099999999995,-1.52099999999995,0.526,0.526,1.,      245P    369
1.,1.,1.,0.00999999999963475,20.01,-20.,0.00999999999963475,         245P    370
-20.01,-20.,-20.4599999999998,20.01,-20.,-20.4599999999998,          245P    371
-20.01,-20.,-0.00100000000000045,4.001,-1.52099999999995,0.526;      245P    372
128,1,1,1,1,0,0,1,0,0,-0.00100000000000007,-0.00100000000000007,     247P    373
4.001,4.001,-1.52099999999995,-1.52099999999995,                     247P    374
0.526000000000001,0.526000000000001,1.,1.,1.,1.,                     247P    375
0.00999999999963919,20.,20.01,0.00999999999963253,20.,-20.01,        247P    376
-20.4599999999998,20.,20.01,-20.4599999999998,20.,-20.01,            247P    377
-0.00100000000000007,4.001,-1.52099999999995,0.526000000000001;      247P    378
128,1,1,1,1,0,0,1,0,0,-1.801,-1.801,2.201,2.201,                     249P    379
-1.52099999999995,-1.52099999999995,0.526,0.526,1.,1.,1.,1.,         249P    380
0.0099999999996303,-20.01,20.,0.0099999999996303,20.01,20.,          249P    381
-20.4599999999998,-20.01,20.,-20.4599999999998,20.01,20.,-1.801,     249P    382
2.201,-1.52099999999995,0.526;                                       249P    383
128,1,1,1,1,0,0,1,0,0,-0.00100000000000007,-0.00100000000000007,     251P    384
1.20703030380333,1.20703030380333,-0.526,-0.526,0.526,0.526,1.,      251P    385
1.,1.,1.,-9.93999999999983,-1.99999999999999,7.92969696196665,       251P    386
-9.93999999999983,-1.99999999999999,20.01,-20.4599999999998,         251P    387
-1.99999999999999,7.92969696196665,-20.4599999999998,                251P    388
-1.99999999999999,20.01,-0.00100000000000007,1.20703030380333,       251P    389
-0.526,0.526;                                                        251P    390
128,1,1,1,1,0,0,1,0,0,0.29900000000003,0.29900000000003,             253P    391
1.1238427124746,1.1238427124746,-0.526,-0.526,0.526,0.526,1.,1.,     253P    392
1.,1.,-9.93999999999983,3.82544768621906,2.11424927574793,           253P    393
-9.93999999999983,-2.00707106781186,7.94676802977852,                253P    394
-20.4599999999998,3.82544768621906,2.11424927574793,                 253P    395
-20.4599999999998,-2.00707106781186,7.94676802977853,                253P    396
0.29900000000003,1.1238427124746,-0.526,0.526;                       253P    397
128,1,1,1,1,0,0,1,0,0,-2.001,-2.001,2.001,2.001,-1.101,-1.101,       255P    398
1.101,1.101,1.,1.,1.,1.,-20.4499999999998,-2.00999999999999,         255P    399
-20.01,-20.4499999999998,-2.00999999999999,20.01,                    255P    400
-20.4499999999998,20.01,-20.01,-20.4499999999998,20.01,20.01,        255P    401
-2.001,2.001,-1.101,1.101;                                           255P    402
502,40,-20.4499999999998,3.8183766184072,2.1213203435598,            257P    403
-20.4499999999998,3.8183766184071,-2.1213203435597,                  257P    404
-9.94999999999984,3.8183766184071,-2.1213203435597,                  257P    405
-9.94999999999984,3.8183766184072,2.1213203435598,                   257P    406
-20.4499999999998,-1.99999999999999,-7.93969696196595,               257P    407
-9.94999999999984,-1.99999999999999,-7.93969696196596,               257P    408
-13.9499999999998,-1.99999999999999,11.2,-9.94999999999983,          257P    409
-5.99999999999999,11.2,-9.94999999999983,-5.99999999999999,20.,      257P    410
-13.9499999999998,-1.99999999999999,20.,-9.94999999999983,-20.,      257P    411
11.2,-9.94999999999983,-20.,20.,-13.9499999999998,                   257P    412
-1.99999999999999,-11.2,-9.94999999999984,-5.99999999999999,         257P    413
-11.2,-13.9499999999998,-1.99999999999999,-20.,                      257P    414
-9.94999999999984,-5.99999999999999,-20.,-9.94999999999984,          257P    415
-1.99999999999999,-11.2,-20.4499999999998,-1.99999999999999,         257P    416
-20.,-9.94999999999984,8.93969696196032,-11.2,-9.94999999999983,     257P    417
8.93969696196712,11.2,-2.30000000000037,8.93969696196032,-11.2,      257P    418
-2.30000000000037,8.93969696196712,11.2,-2.30000000000036,20.,       257P    419
-11.2,-2.30000000000036,20.,11.2,-9.94999999999984,-20.,-11.2,       257P    420
-3.77475828372553D-13,-20.,-11.2,-3.68594044175552D-13,20.,          257P    421
-11.2,-9.94999999999983,-1.99999999999999,11.2,                      257P    422
-9.94999999999983,-1.99999999999999,7.93969696196665,                257P    423
-3.68594044175552D-13,20.,11.2,-3.77475828372553D-13,-20.,11.2,      257P    424
-3.77475828372553D-13,-20.,20.,-3.68594044175552D-13,20.,20.,        257P    425
-3.77475828372553D-13,-20.,-20.,-9.94999999999984,-20.,-20.,         257P    426
-3.68594044175552D-13,20.,-20.,-20.4499999999998,20.,-20.,           257P    427
-20.4499999999998,20.,20.,-20.4499999999998,-1.99999999999999,       257P    428
20.,-20.4499999999998,-1.99999999999999,7.93969696196666;            257P    429
504,60,93,257,1,257,2,95,257,2,257,3,97,257,3,257,4,99,257,4,        259P    430
257,1,101,257,5,257,2,103,257,6,257,5,105,257,3,257,6,107,257,7,     259P    431
257,8,109,257,8,257,9,111,257,9,257,10,113,257,10,257,7,115,257,     259P    432
8,257,11,117,257,11,257,12,119,257,12,257,9,121,257,13,257,14,       259P    433
123,257,13,257,15,125,257,15,257,16,127,257,16,257,14,129,257,       259P    434
13,257,17,131,257,6,257,17,133,257,18,257,5,135,257,15,257,18,       259P    435
137,257,19,257,20,139,257,21,257,19,141,257,22,257,21,143,257,       259P    436
20,257,22,145,257,23,257,21,147,257,23,257,24,149,257,22,257,24,     259P    437
151,257,17,257,19,153,257,25,257,14,155,257,25,257,26,157,257,       259P    438
27,257,26,159,257,23,257,27,161,257,20,257,28,163,257,28,257,29,     259P    439
165,257,29,257,4,167,257,24,257,30,169,257,31,257,30,171,257,11,     259P    440
257,31,173,257,28,257,7,175,257,32,257,31,177,257,12,257,32,179,     259P    441
257,30,257,33,181,257,33,257,32,183,257,26,257,34,185,257,35,        259P    442
257,25,187,257,35,257,34,189,257,16,257,35,191,257,34,257,36,        259P    443
193,257,36,257,27,195,257,37,257,18,197,257,36,257,37,199,257,       259P    444
38,257,37,201,257,33,257,38,203,257,39,257,38,205,257,10,257,39,     259P    445
207,257,40,257,39,209,257,29,257,40,211,257,1,257,40;                259P    446
406,1,20HPully Assembly Gauge;                                       261P    447
314,76.8627450980392,20.7843137254902,15.2941176470588,22HPlasti     263P    448
c - Glossy (Red);                                                    263P    449
314,62.7450980392157,62.7450980392157,62.7450980392157,13HSteel      265P    450
- Satin;                                                             265P    451
S      1G      3D    266P    451                                        T      1
